<svg xmlns="http://www.w3.org/2000/svg" version="1.1" xmlns:xlink="http://www.w3.org/1999/xlink" xmlns:svgjs="http://svgjs.com/svgjs" width="1440" height="560" preserveAspectRatio="none" viewBox="0 0 1440 560"><g mask="url(&quot;#SvgjsMask1006&quot;)" fill="none"><rect width="1440" height="560" x="0" y="0" fill="rgba(11, 11, 12, 1)"></rect><path d="M1309 378L1308 539" stroke-width="8" stroke="url(#SvgjsLinearGradient1007)" stroke-linecap="round" class="Up"></path><path d="M611 251L610 -28" stroke-width="6" stroke="url(#SvgjsLinearGradient1008)" stroke-linecap="round" class="Down"></path><path d="M478 180L477 18" stroke-width="8" stroke="url(#SvgjsLinearGradient1007)" stroke-linecap="round" class="Up"></path><path d="M758 486L757 279" stroke-width="10" stroke="url(#SvgjsLinearGradient1008)" stroke-linecap="round" class="Down"></path><path d="M66 312L65 -60" stroke-width="8" stroke="url(#SvgjsLinearGradient1008)" stroke-linecap="round" class="Down"></path><path d="M1429 509L1428 652" stroke-width="6" stroke="url(#SvgjsLinearGradient1008)" stroke-linecap="round" class="Down"></path><path d="M231 540L230 748" stroke-width="6" stroke="url(#SvgjsLinearGradient1008)" stroke-linecap="round" class="Down"></path><path d="M1386 39L1385 -226" stroke-width="8" stroke="url(#SvgjsLinearGradient1008)" stroke-linecap="round" class="Down"></path><path d="M1424 380L1423 236" stroke-width="10" stroke="url(#SvgjsLinearGradient1007)" stroke-linecap="round" class="Up"></path><path d="M379 143L378 404" stroke-width="10" stroke="url(#SvgjsLinearGradient1007)" stroke-linecap="round" class="Up"></path><path d="M729 437L728 786" stroke-width="10" stroke="url(#SvgjsLinearGradient1008)" stroke-linecap="round" class="Down"></path><path d="M1403 199L1402 6" stroke-width="6" stroke="url(#SvgjsLinearGradient1007)" stroke-linecap="round" class="Up"></path><path d="M521 269L520 586" stroke-width="8" stroke="url(#SvgjsLinearGradient1007)" stroke-linecap="round" class="Up"></path><path d="M71 285L70 131" stroke-width="10" stroke="url(#SvgjsLinearGradient1008)" stroke-linecap="round" class="Down"></path><path d="M803 461L802 764" stroke-width="6" stroke="url(#SvgjsLinearGradient1008)" stroke-linecap="round" class="Down"></path><path d="M122 97L121 339" stroke-width="6" stroke="url(#SvgjsLinearGradient1007)" stroke-linecap="round" class="Up"></path><path d="M1094 244L1093 -10" stroke-width="10" stroke="url(#SvgjsLinearGradient1008)" stroke-linecap="round" class="Down"></path><path d="M409 170L408 383" stroke-width="8" stroke="url(#SvgjsLinearGradient1007)" stroke-linecap="round" class="Up"></path><path d="M1297 147L1296 -111" stroke-width="8" stroke="url(#SvgjsLinearGradient1007)" stroke-linecap="round" class="Up"></path><path d="M1003 471L1002 314" stroke-width="10" stroke="url(#SvgjsLinearGradient1008)" stroke-linecap="round" class="Down"></path><path d="M43 256L42 622" stroke-width="6" stroke="url(#SvgjsLinearGradient1008)" stroke-linecap="round" class="Down"></path><path d="M1363 427L1362 755" stroke-width="6" stroke="url(#SvgjsLinearGradient1008)" stroke-linecap="round" class="Down"></path><path d="M565 0L564 193" stroke-width="6" stroke="url(#SvgjsLinearGradient1008)" stroke-linecap="round" class="Down"></path><path d="M617 21L616 -325" stroke-width="10" stroke="url(#SvgjsLinearGradient1008)" stroke-linecap="round" class="Down"></path><path d="M85 258L84 623" stroke-width="8" stroke="url(#SvgjsLinearGradient1008)" stroke-linecap="round" class="Down"></path><path d="M866 408L865 178" stroke-width="6" stroke="url(#SvgjsLinearGradient1008)" stroke-linecap="round" class="Down"></path><path d="M429 223L428 -197" stroke-width="10" stroke="url(#SvgjsLinearGradient1008)" stroke-linecap="round" class="Down"></path><path d="M1170 453L1169 242" stroke-width="6" stroke="url(#SvgjsLinearGradient1008)" stroke-linecap="round" class="Down"></path><path d="M1409 404L1408 64" stroke-width="10" stroke="url(#SvgjsLinearGradient1008)" stroke-linecap="round" class="Down"></path><path d="M23 388L22 746" stroke-width="6" stroke="url(#SvgjsLinearGradient1007)" stroke-linecap="round" class="Up"></path><path d="M734 345L733 181" stroke-width="8" stroke="url(#SvgjsLinearGradient1007)" stroke-linecap="round" class="Up"></path><path d="M460 551L459 368" stroke-width="6" stroke="url(#SvgjsLinearGradient1007)" stroke-linecap="round" class="Up"></path><path d="M1132 321L1131 479" stroke-width="8" stroke="url(#SvgjsLinearGradient1007)" stroke-linecap="round" class="Up"></path><path d="M1186 300L1185 -44" stroke-width="10" stroke="url(#SvgjsLinearGradient1008)" stroke-linecap="round" class="Down"></path><path d="M1321 111L1320 290" stroke-width="10" stroke="url(#SvgjsLinearGradient1007)" stroke-linecap="round" class="Up"></path><path d="M426 238L425 17" stroke-width="10" stroke="url(#SvgjsLinearGradient1007)" stroke-linecap="round" class="Up"></path></g><defs><mask id="SvgjsMask1006"><rect width="1440" height="560" fill="#ffffff"></rect></mask><linearGradient x1="0%" y1="100%" x2="0%" y2="0%" id="SvgjsLinearGradient1007"><stop stop-color="rgba(245, 246, 247, 0)" offset="0"></stop><stop stop-color="rgba(245, 246, 247, 1)" offset="1"></stop></linearGradient><linearGradient x1="0%" y1="0%" x2="0%" y2="100%" id="SvgjsLinearGradient1008"><stop stop-color="rgba(245, 246, 247, 0)" offset="0"></stop><stop stop-color="rgba(245, 246, 247, 1)" offset="1"></stop></linearGradient></defs></svg>